<svg xmlns="http://www.w3.org/2000/svg" fill="none" viewBox="0 0 128 128"><g id="moonset__moonset" clip-path="url(#moonset__clip0_2038_25444)"><g id="moonset__Horizon"><path id="moonset__Horizon_2" stroke="currentColor" stroke-linecap="round" stroke-width="4" d="M37 91.986h16.746a6 6 0 0 1 3.95 1.485l4.329 3.787a3 3 0 0 0 3.95 0l4.328-3.787a6 6 0 0 1 3.951-1.485H91"/></g><g id="moonset__Mask group"><mask id="moonset__mask0_2038_25444" width="128" height="83" x="0" y="9" maskUnits="userSpaceOnUse" style="mask-type:alpha"><path id="moonset__Mask" fill="#000" d="M0 9h128v77H73.22a6 6 0 0 0-3.905 1.445L64 92l-5.315-4.555A6 6 0 0 0 54.781 86H0z"/></mask><g mask="url(#moonset__mask0_2038_25444)"><g id="moonset__Moon"><path id="moonset__Moon_2" stroke="currentColor" stroke-linecap="round" stroke-linejoin="round" stroke-width="4" d="M58.4 36.416c-3.48 20.81 14.126 40.037 34.823 39.704C88.98 87.698 77.763 96 64.536 96 47.646 96 34 82.497 34 65.898c0-14.53 10.46-26.68 24.4-29.482"/></g></g></g></g><defs><clipPath id="moonset__clip0_2038_25444"><rect width="128" height="128" fill="#fff"/></clipPath></defs></svg>