<svg xmlns="http://www.w3.org/2000/svg" fill="none" viewBox="0 0 128 128"><g id="thermometer__thermometer" clip-path="url(#thermometer__clip0_2038_26372)"><g id="thermometer__Thermometer Mercury"><circle id="thermometer__Reservoir" cx="64" cy="83" r="9" fill="currentColor"/><rect id="thermometer__Value" width="6" height="29" x="61" y="50" fill="currentColor" rx="3"/></g><g id="thermometer__Thermometer Glass"><path id="thermometer__Glass" stroke="currentColor" stroke-linecap="round" stroke-linejoin="round" stroke-width="2" d="M51 83.19a12.55 12.55 0 0 1 1.465-5.904 13 13 0 0 1 4.103-4.6 1 1 0 0 0 .432-.822V38.78c0-1.788.73-3.51 2.04-4.784A7.12 7.12 0 0 1 64 32c1.865 0 3.65.72 4.96 1.995A6.67 6.67 0 0 1 71 38.78v2.768h-6a1 1 0 1 0 0 2h6v5.78h-6a1 1 0 1 0 0 2h6v5.778h-6a1 1 0 0 0 0 2h6V71.84a1 1 0 0 0 .432.823 13 13 0 0 1 4.108 4.609A12.55 12.55 0 0 1 77 83.188v.004C77 90.261 71.21 96 64 96s-13-5.74-13-12.808z"/></g></g><defs><clipPath id="thermometer__clip0_2038_26372"><rect width="128" height="128" fill="#fff"/></clipPath></defs></svg>