<svg xmlns="http://www.w3.org/2000/svg" fill="none" viewBox="0 0 128 128"><g id="moonrise__moonrise" clip-path="url(#moonrise__clip0_2045_48363)"><g id="moonrise__Horizon"><path id="moonrise__Horizon Rise" stroke="#202939" stroke-linecap="round" stroke-width="4" d="M37 92h16.746a6 6 0 0 0 3.95-1.484l4.329-3.787a3 3 0 0 1 3.95 0l4.328 3.787A6 6 0 0 0 74.254 92H91"/></g><g id="moonrise__Mask group"><mask id="moonrise__mask0_2045_48363" width="128" height="77" x="0" y="9" maskUnits="userSpaceOnUse" style="mask-type:alpha"><path id="moonrise__Mask" fill="#000" d="M0 9h128v77H75.052a3 3 0 0 1-1.874-.657l-5.43-4.344a6 6 0 0 0-7.496 0l-5.43 4.344a3 3 0 0 1-1.874.657H0z"/></mask><g mask="url(#moonrise__mask0_2045_48363)"><g id="moonrise__Moon"><path id="moonrise__Moon_2" fill="#72b9d5" d="M60.962 34C44.676 35.758 32 49.362 32 65.898 32 83.627 46.567 98 64.536 98 79.682 98 92.373 87.775 96 73.95 74.381 76.266 55.329 55.463 60.962 34"/></g></g></g></g><defs><clipPath id="moonrise__clip0_2045_48363"><rect width="128" height="128" fill="#fff"/></clipPath></defs></svg>